# xmcd CD database file
#
# Track frame offsets:
#	150
#	27291
#	75508
#	92673
#	178476
#	209500
#	247554
#
# Disc length: 3793 seconds
#
# Revision: 1
# Processed by: cddbd v1.5.2PL0 Copyright (c) Steve Scherf et al.
# Submitted via: CDex 1.50Beta7
#
DISCID=500ecf07
DTITLE=Clifford Brown - At The Cotton Club 1956 - Disc 3
DYEAR=2007
DGENRE=Jazz
TTITLE0=Lover Man [CD03)
TTITLE1=Daahoud
TTITLE2=What's New
TTITLE3=I'll Remember April
TTITLE4=Daahoud
TTITLE5='Round Midnight
TTITLE6=Blues Walk
EXTD=YEAR: 2007
EXTT0=
EXTT1=
EXTT2=
EXTT3=
EXTT4=
EXTT5=
EXTT6=
PLAYORDER=
